# xmcd
#
# Track frame offsets:
#	150
#	12611
#	28662
#	53554
#	69671
#	88764
#	106621
#	121814
#	141851
#
# Disc length: 2068 seconds
#
# Revision: 1
# Processed by: cddbd v1.5.1PL0 Copyright (c) Steve Scherf et al.
# Submitted via: audiograbber 1.83.01
#
DISCID=72081209
DTITLE=Cerny mosty - Bluestime
DYEAR=2000
DGENRE=Blues
TTITLE0=Born in Chicago
TTITLE1=Ain't Got You
TTITLE2=After Midnight
TTITLE3=I've Got My Mojo Working
TTITLE4=Phonebooth
TTITLE5=Myslenky
TTITLE6=Messing With the Kid
TTITLE7=One Way Out
TTITLE8=Predstavivost
EXTD=
EXTT0=
EXTT1=
EXTT2=
EXTT3=
EXTT4=
EXTT5=
EXTT6=
EXTT7=
EXTT8=
PLAYORDER=
